<?xml version="1.0" encoding="utf-8"?>
<!-- Generator: Adobe Illustrator 28.1.0, SVG Export Plug-In . SVG Version: 6.00 Build 0)  -->
<svg version="1.1" id="Capa_1" xmlns="http://www.w3.org/2000/svg" xmlns:xlink="http://www.w3.org/1999/xlink" x="0px" y="0px"
	 viewBox="0 0 480 480" style="enable-background:new 0 0 480 480;" xml:space="preserve">
<style type="text/css">
	.st0{fill:#9CB972;}
</style>
<path class="st0" d="M480,240c0,0-53.73-60-120-60c-1.86,0-3.68,0.07-5.51,0.11c14.71-32.26,12.79-67.39,12.79-67.39
	s-35.13-1.92-67.39,12.79c0.04-1.84,0.11-3.66,0.11-5.51c0-66.28-60-120-60-120s-60,53.72-60,120c0,1.86,0.07,3.68,0.11,5.51
	c-32.26-14.71-67.39-12.79-67.39-12.79s-1.92,35.13,12.79,67.39c-1.84-0.04-3.66-0.11-5.51-0.11C53.73,180,0,240,0,240
	s53.73,60,120,60c1.86,0,3.68-0.07,5.51-0.11c-14.71,32.26-12.79,67.39-12.79,67.39s35.13,1.92,67.39-12.79
	c-0.04,1.84-0.11,3.66-0.11,5.51c0,66.27,60,120,60,120s60-53.73,60-120c0-1.86-0.07-3.68-0.11-5.51
	c32.26,14.71,67.39,12.79,67.39,12.79s1.92-35.13-12.79-67.39c1.84,0.04,3.66,0.11,5.51,0.11C426.27,300,480,240,480,240z
	 M290.62,265.31c-0.78,0-1.55-0.03-2.33-0.05c6.21,13.61,5.4,28.43,5.4,28.43s-14.82,0.81-28.43-5.4c0.02,0.77,0.05,1.54,0.05,2.33
	c0,27.96-25.31,50.62-25.31,50.62s-25.31-22.67-25.31-50.62c0-0.78,0.03-1.55,0.05-2.33c-13.61,6.21-28.43,5.4-28.43,5.4
	s-0.81-14.82,5.4-28.43c-0.77,0.02-1.54,0.05-2.33,0.05c-27.96,0-50.62-25.31-50.62-25.31s22.67-25.31,50.62-25.31
	c0.78,0,1.55,0.03,2.33,0.05c-6.21-13.61-5.4-28.43-5.4-28.43s14.82-0.81,28.43,5.4c-0.02-0.77-0.05-1.54-0.05-2.33
	c0-27.96,25.31-50.62,25.31-50.62s25.31,22.67,25.31,50.62c0,0.78-0.03,1.55-0.05,2.33c13.61-6.21,28.43-5.4,28.43-5.4
	s0.81,14.82-5.4,28.43c0.77-0.02,1.54-0.05,2.33-0.05c27.96,0,50.62,25.31,50.62,25.31S318.58,265.31,290.62,265.31z"/>
</svg>
