<?xml version="1.0" encoding="UTF-8"?>
<svg id="Capa_2" data-name="Capa 2" xmlns="http://www.w3.org/2000/svg" viewBox="0 0 78.95 47.05">
  <defs>
    <style>
      .cls-1 {
        fill: #6b6bf7;
        stroke-width: 0px;
      }
    </style>
  </defs>
  <g id="art">
    <g>
      <g>
        <path class="cls-1" d="M23.78,46.14c-8.78,0-12.51-6.76-15.87-12.85-2.15-3.89-4.18-7.57-7.28-9-.38-.17-.62-.55-.62-.97s.24-.79.62-.97c3.11-1.43,5.14-5.11,7.28-9C11.99,5.96,16.61-2.42,30.17,1.51c.57.16.89.76.73,1.32-.16.57-.76.89-1.32.73C17.66.1,13.83,7.04,9.77,14.39c-1.96,3.55-3.82,6.93-6.61,8.94,2.78,2.01,4.65,5.39,6.61,8.94,4.06,7.35,7.89,14.29,19.81,10.83.56-.16,1.16.16,1.32.73.16.57-.16,1.16-.73,1.32-2.39.7-4.51,1.01-6.39,1.01Z"/>
        <path class="cls-1" d="M55.17,46.24c-1.88,0-4-.31-6.4-1.01-.56-.16-.89-.76-.72-1.32.17-.56.76-.89,1.32-.72,11.92,3.48,15.75-3.5,19.81-10.88,1.96-3.57,3.83-6.97,6.61-8.98-2.79-2.02-4.65-5.42-6.61-8.98C65.12,6.96,61.29-.02,49.37,3.46c-.57.17-1.16-.16-1.32-.72-.16-.57.16-1.16.72-1.32,13.56-3.96,18.19,4.47,22.27,11.9,2.15,3.91,4.18,7.6,7.28,9.04.38.17.62.55.62.97s-.24.79-.62.97c-3.11,1.44-5.14,5.13-7.28,9.04-3.36,6.12-7.09,12.91-15.87,12.91Z"/>
        <path class="cls-1" d="M39.47,47.05c-6.03,0-12.05-2.29-16.64-6.88-9.18-9.18-9.18-24.11,0-33.29,9.18-9.18,24.11-9.18,33.29,0,9.18,9.18,9.18,24.11,0,33.29-4.59,4.59-10.62,6.88-16.64,6.88ZM39.47,2.13c-5.48,0-10.96,2.09-15.14,6.26-8.35,8.35-8.35,21.93,0,30.27,8.35,8.35,21.93,8.35,30.27,0,8.35-8.35,8.35-21.93,0-30.27-4.17-4.17-9.66-6.26-15.14-6.26Z"/>
      </g>
      <g>
        <path class="cls-1" d="M39.64,37.6c-1.38,0-2.77-.36-3.95-1.04-1.6-.93-3.46-3.33-3.67-5.58-.05-.59.38-1.1.97-1.16.59-.05,1.1.38,1.16.97.13,1.43,1.51,3.29,2.61,3.92,1.16.67,2.6.91,3.93.66,1.3-.25,2.36-.94,2.92-1.9.47-.81.76-2.17.19-3.57-.62-1.52-2.09-2.64-4.25-3.24-.5-.14-.83-.62-.77-1.14.06-.52.48-.92,1-.95,1.69-.1,3.1-.91,3.77-2.16.45-.83.47-1.71.07-2.41-.58-1-1.56-1.69-2.76-1.95-1.24-.27-2.56-.04-3.72.63-.91.53-1.6,1.74-1.79,2.17-.24.54-.87.78-1.41.54-.54-.24-.78-.86-.55-1.4.1-.22.99-2.18,2.67-3.15,1.62-.94,3.48-1.24,5.24-.86,1.8.39,3.27,1.44,4.15,2.96.77,1.33.76,3.01-.03,4.48-.55,1.02-1.4,1.85-2.45,2.42,1.58,1,2.38,2.24,2.8,3.26.72,1.77.6,3.85-.32,5.44-.87,1.5-2.46,2.57-4.37,2.93-.48.09-.96.14-1.45.14Z"/>
        <path class="cls-1" d="M39.42,10.37c-.91,0-1.65-.74-1.65-1.65s.74-1.65,1.65-1.65,1.65.74,1.65,1.65-.74,1.65-1.65,1.65ZM39.42,8.24c-.27,0-.49.22-.49.49s.22.49.49.49.49-.22.49-.49-.22-.49-.49-.49Z"/>
        <path class="cls-1" d="M39.44,14.09c-1.87,0-3.71-.73-5.16-2.06-.39-.35-.42-.95-.06-1.34.35-.39.96-.42,1.34-.06,1.12,1.02,2.46,1.56,3.88,1.56s2.88-.59,4-1.67c.38-.36.98-.35,1.34.03.36.38.35.98-.03,1.34-1.48,1.42-3.37,2.2-5.32,2.2Z"/>
      </g>
    </g>
  </g>
</svg>