<?xml version="1.0" encoding="UTF-8"?>
<svg id="Capa_2" data-name="Capa 2" xmlns="http://www.w3.org/2000/svg" viewBox="0 0 67.66 67.66">
  <defs>
    <style>
      .cls-1 {
        fill: #8069aa;
        fill-rule: evenodd;
        stroke-width: 0px;
      }
    </style>
  </defs>
  <g id="Capa_1-2" data-name="Capa 1">
    <path id="instagram" class="cls-1" d="M33.83,67.66C15.15,67.66,0,52.52,0,33.83S15.15,0,33.83,0s33.83,15.15,33.83,33.83c0,18.68-15.15,33.83-33.83,33.83M33.83,19.96c4.52,0,5.05.02,6.84.1,1.07.01,2.13.21,3.14.58,1.48.57,2.64,1.74,3.21,3.21.37,1.01.57,2.07.58,3.14.08,1.78.1,2.32.1,6.84s-.02,5.05-.1,6.83c-.01,1.07-.21,2.14-.58,3.15-.57,1.48-1.74,2.64-3.21,3.21-1,.38-2.07.57-3.14.58-1.78.08-2.32.1-6.84.1s-5.05-.02-6.83-.1c-1.07-.01-2.14-.21-3.15-.58-.73-.27-1.4-.71-1.95-1.27-.56-.55-.99-1.21-1.26-1.95-.38-1-.57-2.07-.58-3.14-.08-1.78-.1-2.32-.1-6.84s.02-5.05.1-6.84c.01-1.07.21-2.13.58-3.14.27-.73.71-1.4,1.27-1.95.55-.56,1.21-.99,1.95-1.26,1.01-.38,2.07-.58,3.15-.59,1.78-.08,2.32-.1,6.84-.1M33.84,16.91c-4.59,0-5.17.02-6.97.1-1.4.03-2.79.3-4.11.79-2.27.88-4.07,2.67-4.95,4.95-.49,1.31-.76,2.7-.79,4.11-.08,1.8-.1,2.38-.1,6.98s.02,5.17.1,6.97c.03,1.4.29,2.79.79,4.11.88,2.27,2.67,4.07,4.95,4.95,1.31.49,2.7.76,4.1.79,1.81.08,2.38.1,6.98.1s5.17-.02,6.98-.1c1.4-.03,2.79-.29,4.1-.79,2.27-.87,4.07-2.67,4.95-4.94.49-1.31.76-2.7.79-4.11.08-1.81.1-2.38.1-6.98s-.02-5.17-.1-6.98c-.03-1.4-.3-2.79-.79-4.1-.88-2.28-2.68-4.08-4.95-4.96-1.31-.49-2.7-.76-4.11-.79-1.8-.08-2.38-.1-6.98-.1M33.87,25.17c-4.8,0-8.7,3.9-8.7,8.7s3.9,8.7,8.7,8.7,8.7-3.9,8.7-8.7-3.9-8.7-8.7-8.7h0M33.87,39.51c-3.12-.04-5.61-2.6-5.57-5.72.04-3.06,2.51-5.53,5.57-5.57h0c3.12.04,5.61,2.6,5.57,5.72-.04,3.06-2.51,5.53-5.57,5.57M44.84,24.77c0-1.11-.9-2.01-2.01-2.01s-2.01.9-2.01,2.01h0c0,1.11.9,2.01,2.01,2.01s2.01-.9,2.01-2.01"/>
  </g>
</svg>