<?xml version="1.0" encoding="UTF-8"?>
<svg id="Capa_2" data-name="Capa 2" xmlns="http://www.w3.org/2000/svg" viewBox="0 0 241.79 116.49">
  <defs>
    <style>
      .cls-1 {
        fill: #575756;
      }

      .cls-1, .cls-2 {
        stroke-width: 0px;
      }

      .cls-2 {
        fill: #9cb972;
      }
    </style>
  </defs>
  <g id="Positivo">
    <g id="isotipo">
      <path class="cls-1" d="M187.6,38.1c-2.63,0-4.77,2.38-4.77,2.38,0,0,2.13,2.38,4.77,2.38.07,0,.15,0,.22,0-.58,1.28-.51,2.68-.51,2.68,0,0,1.4.08,2.68-.51,0,.07,0,.15,0,.22,0,2.63,2.38,4.77,2.38,4.77,0,0,2.38-2.13,2.38-4.77,0-.07,0-.15,0-.22,1.28.58,2.68.51,2.68.51,0,0,.08-1.4-.51-2.68.07,0,.15,0,.22,0,2.63,0,4.77-2.38,4.77-2.38,0,0-2.13-2.38-4.77-2.38-.07,0-.15,0-.22,0,.58-1.28.51-2.68.51-2.68,0,0-1.4-.08-2.68.51,0-.07,0-.15,0-.22,0-2.63-2.38-4.77-2.38-4.77,0,0-2.38,2.13-2.38,4.77,0,.07,0,.15,0,.22-1.28-.58-2.68-.51-2.68-.51,0,0-.08,1.4.51,2.68-.07,0-.15,0-.22,0ZM190.36,39.48s.06,0,.09,0c-.25-.54-.21-1.13-.21-1.13,0,0,.59-.03,1.13.21,0-.03,0-.06,0-.09,0-1.11,1.01-2.01,1.01-2.01,0,0,1.01.9,1.01,2.01,0,.03,0,.06,0,.09.54-.25,1.13-.21,1.13-.21,0,0,.03.59-.21,1.13.03,0,.06,0,.09,0,1.11,0,2.01,1.01,2.01,1.01,0,0-.9,1.01-2.01,1.01-.03,0-.06,0-.09,0,.25.54.21,1.13.21,1.13,0,0-.59.03-1.13-.21,0,.03,0,.06,0,.09,0,1.11-1.01,2.01-1.01,2.01,0,0-1.01-.9-1.01-2.01,0-.03,0-.06,0-.09-.54.25-1.13.21-1.13.21,0,0-.03-.59.21-1.13-.03,0-.06,0-.09,0-1.11,0-2.01-1.01-2.01-1.01,0,0,.9-1.01,2.01-1.01Z"/>
      <path class="cls-1" d="M241.05,51.76c-.61,0-1.32.13-2.1.38-.64.21-1.19.45-1.65.73-1-.74-2.33-1.11-3.94-1.11s-3.27.41-4.87,1.22c-1.58.8-3.03,1.85-4.31,3.11-1.29,1.27-2.34,2.71-3.12,4.29-.79,1.6-1.19,3.23-1.19,4.86,0,1.45.33,2.75.99,3.86.7,1.19,1.72,1.79,3.02,1.79h.08c1.75-.31,3.42-1.22,4.97-2.73,1.02-.98,1.99-2.11,2.91-3.37-.18,1.26-.17,2.41.04,3.42.44,2.21,1.63,2.68,2.54,2.68,1.04,0,2.13-.4,3.25-1.19,1.08-.76,2.08-1.8,2.96-3.07l.05-.07.02-.08c.09-.38-.03-.71-.33-.91-.38-.26-.73-.14-.92.06l-.03.04c-1.21,1.5-1.83,1.82-2.09,1.87-.26.05-.6.08-.76-.08-.15-.25-.3-.8-.2-2.04.09-1.1.35-2.38.77-3.79.42-1.42,1.02-2.93,1.79-4.49.76-1.55,1.69-3,2.76-4.29l.1-.12v-.16c0-.56-.37-.81-.73-.81ZM233.08,59.68c-.87,1.45-1.76,2.78-2.64,3.95-.88,1.16-1.73,2.09-2.53,2.78-.93.79-1.49.96-1.81.96-.11,0-.45,0-.86-.7-.31-.54-.47-1.31-.47-2.27,0-1.57.2-3.02.59-4.32.39-1.3.92-2.43,1.57-3.36.65-.91,1.43-1.64,2.31-2.15.88-.5,1.83-.76,2.84-.76.82,0,1.55.17,2.17.51.53.29.87.65,1.05,1.08-.64,1.44-1.39,2.88-2.22,4.27Z"/>
      <path class="cls-1" d="M217.23,65.15l-.04.04c-.64.83-1.22,1.45-1.71,1.85-.44.36-.86.54-1.28.54-.23,0-.76,0-.76-1.4s.34-3.15,1.01-5.01c.67-1.88,1.51-3.74,2.48-5.5.38-.59.57-1.27.57-2.02,0-.51-.2-.95-.61-1.33-.39-.36-.94-.55-1.62-.55-1.38,0-2.71.26-3.95.78-1.22.51-2.37,1.2-3.42,2.06-1.04.85-2,1.8-2.84,2.84-.13.16-.25.32-.38.48,0-.02.01-.05.02-.07.26-.94.52-1.94.76-2.99.16-.81.09-1.52-.22-2.11-.34-.66-1.02-.99-2-.99-.63,0-1.27.15-1.9.43-.6.27-1.18.63-1.73,1.05-.54.42-1.03.85-1.44,1.29-.42.44-.75.84-1,1.19l-.06.12c-.1.29-.03.6.19.86.27.32.65.38.99.16l.07-.04.05-.06c.36-.5.77-.97,1.23-1.4.39-.37.78-.55,1.19-.55.06,0,.07,0,.09.05,0,.02.07.19-.1.74-.61,2.44-1.34,4.91-2.16,7.34-.83,2.43-1.65,4.69-2.45,6.71-.23.58,0,.89.17,1.02.2.16.47.24.82.24.21,0,.5-.03.85-.08.33-.05.68-.11,1.03-.18.36-.08.69-.18.98-.31.38-.17.61-.39.7-.65,1.78-5.14,3.74-8.94,5.82-11.28,2.04-2.29,3.89-3.45,5.51-3.45.14,0,.19,0,.19.26,0,.32-.06.62-.17.87-1,2.01-1.82,4.02-2.41,5.98-.6,1.98-.91,3.84-.91,5.54,0,.96.26,1.76.79,2.36.54.62,1.29.94,2.23.94,1.19,0,2.4-.49,3.6-1.45,1.14-.92,2.16-2.01,3.04-3.22l.05-.07.02-.08c.09-.35-.02-.69-.29-.92-.39-.32-.76-.21-.96,0Z"/>
      <path class="cls-1" d="M194.12,51.76h-.1l-.09.04c-.61.28-1.29.61-2.01.97-.72.36-1.43.75-2.13,1.15-.7.41-1.33.81-1.88,1.19-.57.4-1,.74-1.31,1.05l-.07.07-.03.1c-.07.19-.1.49.12.82.14.22.32.29.45.32.13.02.32.02.53-.12l.04-.03c.56-.47,1.17-.9,1.8-1.29-1.47,5.81-2.95,10.63-4.39,14.35-1.52,3.91-3.1,7-4.68,9.19-1.56,2.16-3.18,3.64-4.81,4.42-1.64.77-3.4,1.17-5.22,1.17-2.16,0-3.78-.41-4.81-1.22-.98-.78-1.36-1.74-1.15-2.95l.02-.09-.02-.09c-.1-.39-.37-.63-.72-.63-.29,0-.55.15-.73.41l-.04.06-.02.08c-.55,2.14-.46,3.94.25,5.34.75,1.46,2.05,2.2,3.89,2.2,2.62,0,5.27-.6,7.88-1.79,2.61-1.18,5.18-3.19,7.63-5.95,2.44-2.75,4.76-6.41,6.91-10.89,2.14-4.47,4.07-10.08,5.73-16.69.09-.43-.03-.7-.15-.85-.18-.23-.47-.34-.86-.34Z"/>
      <path class="cls-1" d="M170.84,50.81c-.78,3.77-1.18,7.52-1.18,11.16,0,2.79.52,4.98,1.53,6.52,1.06,1.6,2.63,2.41,4.68,2.41,1.38,0,2.88-.66,4.45-1.95,1.52-1.26,2.93-2.92,4.19-4.95l.04-.06.02-.07c.09-.38-.03-.71-.33-.91-.29-.2-.63-.2-.92,0l-.08.05-.05.08c-1.61,2.51-3.31,3.78-5.04,3.78-1.19,0-2-.53-2.47-1.62-.52-1.19-.78-2.92-.78-5.13,0-3,.24-5.97.71-8.83.47-2.86,1.13-5.61,1.98-8.2.84-2.58,1.89-4.98,3.1-7.15,1.21-2.17,2.6-4.12,4.13-5.78.39-.39.56-.69.56-.99s-.15-.59-.41-.77l-.11-.05c-.7-.23-1.75-.17-2.86.08l-.29.07c-1.4.35-2.83.97-3.68,1.64-4.46,3.51-8.37,6.92-11.61,10.11-3.18,3.13-6.12,6.1-8.75,8.81-1.59.05-3.01.08-4.26.1-1.31.02-2.29.06-2.93.11-.42.05-.85.17-1.29.35-.44.18-.82.39-1.13.63-.32.24-.56.47-.73.7-.21.28-.19.52-.13.66.06.15.2.34.55.41h.08s.08,0,.08,0c1.27-.19,2.65-.34,4.1-.46,1.12-.09,2.3-.17,3.51-.25l-2.58,2.58c-1.08,1.08-2.18,2.11-3.26,3.05-3.09,2.81-6.42,5.06-9.9,6.69-2.14,1.01-4.18,2.93-4.27,4.03-.02.3.09.56.32.71.43.3,1.18.16,2.42-.44,4.03-1.96,8.01-4.71,11.82-8.19,1.38-1.23,2.81-2.61,4.26-4.08,1.41-1.43,2.89-2.97,4.4-4.58,1.97-.09,4.03-.16,6.11-.2,1.98-.04,4.01-.07,6.02-.07ZM169,40.71c2.61-2.53,5.54-5.16,8.74-7.82-1.26,2.01-2.38,4.15-3.34,6.4-1.33,3.13-2.39,6.39-3.15,9.7h-4.88c-1.84,0-3.74.02-5.66.05,2.54-2.65,5.32-5.44,8.29-8.32Z"/>
    </g>
  </g>
  <g id="Color">
    <path class="cls-2" d="M116.49,58.24s-13.04-14.56-29.12-14.56c-.45,0-.89.02-1.34.03,3.57-7.83,3.1-16.36,3.1-16.36,0,0-8.53-.47-16.35,3.1.01-.45.03-.89.03-1.34,0-16.08-14.56-29.12-14.56-29.12,0,0-14.56,13.04-14.56,29.12,0,.45.02.89.03,1.34-7.83-3.57-16.35-3.1-16.35-3.1,0,0-.47,8.53,3.1,16.36-.45-.01-.89-.03-1.34-.03C13.04,43.68,0,58.24,0,58.24c0,0,13.04,14.56,29.12,14.56.45,0,.89-.02,1.34-.03-3.57,7.83-3.1,16.35-3.1,16.35,0,0,8.53.47,16.35-3.1-.01.45-.03.89-.03,1.34,0,16.08,14.56,29.12,14.56,29.12,0,0,14.56-13.04,14.56-29.12,0-.45-.02-.89-.03-1.34,7.83,3.57,16.35,3.1,16.35,3.1,0,0,.47-8.53-3.1-16.35.45.01.89.03,1.34.03,16.08,0,29.12-14.56,29.12-14.56ZM70.53,64.39c-.19,0-.38,0-.56-.01,1.51,3.3,1.31,6.9,1.31,6.9,0,0-3.6.2-6.9-1.31,0,.19.01.37.01.56,0,6.79-6.14,12.29-6.14,12.29,0,0-6.14-5.5-6.14-12.29,0-.19,0-.38.01-.56-3.3,1.51-6.9,1.31-6.9,1.31,0,0-.2-3.6,1.31-6.9-.19,0-.37.01-.56.01-6.79,0-12.29-6.14-12.29-6.14,0,0,5.5-6.14,12.29-6.14.19,0,.38,0,.56.01-1.51-3.3-1.31-6.9-1.31-6.9,0,0,3.6-.2,6.9,1.31,0-.19-.01-.37-.01-.56,0-6.79,6.14-12.29,6.14-12.29,0,0,6.14,5.5,6.14,12.29,0,.19,0,.38-.01.56,3.3-1.51,6.9-1.31,6.9-1.31,0,0,.2,3.6-1.31,6.9.19,0,.37-.01.56-.01,6.79,0,12.29,6.14,12.29,6.14,0,0-5.5,6.14-12.29,6.14Z"/>
  </g>
</svg>