<?xml version="1.0" encoding="utf-8"?>
<!-- Generator: Adobe Illustrator 28.2.0, SVG Export Plug-In . SVG Version: 6.00 Build 0)  -->
<svg version="1.1" id="Capa_2_00000052090637942511937800000000106878142321297057_"
	 xmlns="http://www.w3.org/2000/svg" xmlns:xlink="http://www.w3.org/1999/xlink" x="0px" y="0px" viewBox="0 0 241.8 116.5"
	 style="enable-background:new 0 0 241.8 116.5;" xml:space="preserve">
<style type="text/css">
	.st0{fill:#575756;}
	.st1{fill:#9CB972;}
</style>
<g id="Positivo">
	<g id="isotipo">
		<path class="st0" d="M175.1,46.5c-2.6,0-4.8,2.4-4.8,2.4s2.1,2.4,4.8,2.4c0.1,0,0.1,0,0.2,0c-0.6,1.3-0.5,2.7-0.5,2.7
			s1.4,0.1,2.7-0.5c0,0.1,0,0.2,0,0.2c0,2.6,2.4,4.8,2.4,4.8s2.4-2.1,2.4-4.8c0-0.1,0-0.2,0-0.2c1.3,0.6,2.7,0.5,2.7,0.5
			s0.1-1.4-0.5-2.7c0.1,0,0.1,0,0.2,0c2.6,0,4.8-2.4,4.8-2.4s-2.1-2.4-4.8-2.4c-0.1,0-0.1,0-0.2,0c0.6-1.3,0.5-2.7,0.5-2.7
			s-1.4-0.1-2.7,0.5c0-0.1,0-0.2,0-0.2c0-2.6-2.4-4.8-2.4-4.8s-2.4,2.1-2.4,4.8c0,0.1,0,0.2,0,0.2c-1.3-0.6-2.7-0.5-2.7-0.5
			s-0.1,1.4,0.5,2.7C175.2,46.5,175.1,46.5,175.1,46.5z M177.8,47.9C177.8,47.9,177.9,47.9,177.8,47.9c-0.2-0.5-0.1-1.1-0.1-1.1
			s0.6,0,1.1,0.2c0,0,0-0.1,0-0.1c0-1.1,1-2,1-2s1,0.9,1,2c0,0,0,0.1,0,0.1c0.5-0.2,1.1-0.2,1.1-0.2s0,0.6-0.2,1.1c0,0,0.1,0,0.1,0
			c1.1,0,2,1,2,1s-0.9,1-2,1c0,0-0.1,0-0.1,0C182,50.4,182,51,182,51s-0.6,0-1.1-0.2c0,0,0,0.1,0,0.1c0,1.1-1,2-1,2s-1-0.9-1-2
			c0,0,0-0.1,0-0.1c-0.5,0.2-1.1,0.2-1.1,0.2s0-0.6,0.2-1.1c0,0-0.1,0-0.1,0c-1.1,0-2-1-2-1S176.7,47.9,177.8,47.9z"/>
		<path class="st0" d="M228.5,60.1c-0.6,0-1.3,0.1-2.1,0.4c-0.6,0.2-1.2,0.5-1.6,0.7c-1-0.7-2.3-1.1-3.9-1.1s-3.3,0.4-4.9,1.2
			c-1.6,0.8-3,1.8-4.3,3.1c-1.3,1.3-2.3,2.7-3.1,4.3c-0.8,1.6-1.2,3.2-1.2,4.9c0,1.4,0.3,2.8,1,3.9c0.7,1.2,1.7,1.8,3,1.8h0.1
			c1.8-0.3,3.4-1.2,5-2.7c1-1,2-2.1,2.9-3.4c-0.2,1.3-0.2,2.4,0,3.4c0.4,2.2,1.6,2.7,2.5,2.7c1,0,2.1-0.4,3.2-1.2
			c1.1-0.8,2.1-1.8,3-3.1l0.1-0.1l0-0.1c0.1-0.4,0-0.7-0.3-0.9c-0.4-0.3-0.7-0.1-0.9,0.1l0,0c-1.2,1.5-1.8,1.8-2.1,1.9
			s-0.6,0.1-0.8-0.1c-0.1-0.2-0.3-0.8-0.2-2c0.1-1.1,0.4-2.4,0.8-3.8c0.4-1.4,1-2.9,1.8-4.5c0.8-1.5,1.7-3,2.8-4.3l0.1-0.1V61
			C229.3,60.4,228.9,60.1,228.5,60.1L228.5,60.1z M220.5,68.1c-0.9,1.5-1.8,2.8-2.6,4c-0.9,1.2-1.7,2.1-2.5,2.8
			c-0.9,0.8-1.5,1-1.8,1c-0.1,0-0.4,0-0.9-0.7c-0.3-0.5-0.5-1.3-0.5-2.3c0-1.6,0.2-3,0.6-4.3c0.4-1.3,0.9-2.4,1.6-3.4
			c0.6-0.9,1.4-1.6,2.3-2.1c0.9-0.5,1.8-0.8,2.8-0.8c0.8,0,1.6,0.2,2.2,0.5c0.5,0.3,0.9,0.7,1.1,1.1
			C222.1,65.2,221.4,66.7,220.5,68.1L220.5,68.1z"/>
		<path class="st0" d="M204.7,73.5L204.7,73.5c-0.7,0.9-1.3,1.5-1.8,1.9c-0.4,0.4-0.9,0.5-1.3,0.5c-0.2,0-0.8,0-0.8-1.4s0.3-3.2,1-5
			c0.7-1.9,1.5-3.7,2.5-5.5c0.4-0.6,0.6-1.3,0.6-2c0-0.5-0.2-1-0.6-1.3c-0.4-0.4-0.9-0.5-1.6-0.5c-1.4,0-2.7,0.3-3.9,0.8
			c-1.2,0.5-2.4,1.2-3.4,2.1c-1,0.8-2,1.8-2.8,2.8c-0.1,0.2-0.2,0.3-0.4,0.5c0,0,0-0.1,0-0.1c0.3-0.9,0.5-1.9,0.8-3
			c0.2-0.8,0.1-1.5-0.2-2.1c-0.3-0.7-1-1-2-1c-0.6,0-1.3,0.2-1.9,0.4c-0.6,0.3-1.2,0.6-1.7,1c-0.5,0.4-1,0.8-1.4,1.3
			c-0.4,0.4-0.8,0.8-1,1.2l-0.1,0.1c-0.1,0.3,0,0.6,0.2,0.9c0.3,0.3,0.6,0.4,1,0.2l0.1,0l0.1-0.1c0.4-0.5,0.8-1,1.2-1.4
			c0.4-0.4,0.8-0.5,1.2-0.5c0.1,0,0.1,0,0.1,0c0,0,0.1,0.2-0.1,0.7c-0.6,2.4-1.3,4.9-2.2,7.3c-0.8,2.4-1.6,4.7-2.4,6.7
			c-0.2,0.6,0,0.9,0.2,1c0.2,0.2,0.5,0.2,0.8,0.2c0.2,0,0.5,0,0.9-0.1c0.3-0.1,0.7-0.1,1-0.2c0.4-0.1,0.7-0.2,1-0.3
			c0.4-0.2,0.6-0.4,0.7-0.7c1.8-5.1,3.7-8.9,5.8-11.3c2-2.3,3.9-3.4,5.5-3.4c0.1,0,0.2,0,0.2,0.3c0,0.3-0.1,0.6-0.2,0.9
			c-1,2-1.8,4-2.4,6c-0.6,2-0.9,3.8-0.9,5.5c0,1,0.3,1.8,0.8,2.4c0.5,0.6,1.3,0.9,2.2,0.9c1.2,0,2.4-0.5,3.6-1.4
			c1.1-0.9,2.2-2,3-3.2l0.1-0.1l0-0.1c0.1-0.3,0-0.7-0.3-0.9C205.3,73.2,204.9,73.4,204.7,73.5L204.7,73.5z"/>
		<path class="st0" d="M181.6,60.1h-0.1l-0.1,0c-0.6,0.3-1.3,0.6-2,1s-1.4,0.8-2.1,1.2c-0.7,0.4-1.3,0.8-1.9,1.2
			c-0.6,0.4-1,0.7-1.3,1l-0.1,0.1l0,0.1c-0.1,0.2-0.1,0.5,0.1,0.8c0.1,0.2,0.3,0.3,0.4,0.3c0.1,0,0.3,0,0.5-0.1l0,0
			c0.6-0.5,1.2-0.9,1.8-1.3c-1.5,5.8-2.9,10.6-4.4,14.3c-1.5,3.9-3.1,7-4.7,9.2c-1.6,2.2-3.2,3.6-4.8,4.4c-1.6,0.8-3.4,1.2-5.2,1.2
			c-2.2,0-3.8-0.4-4.8-1.2c-1-0.8-1.4-1.7-1.1-2.9l0-0.1l0-0.1c-0.1-0.4-0.4-0.6-0.7-0.6c-0.3,0-0.6,0.2-0.7,0.4l0,0.1l0,0.1
			c-0.6,2.1-0.5,3.9,0.2,5.3c0.8,1.5,2.1,2.2,3.9,2.2c2.6,0,5.3-0.6,7.9-1.8c2.6-1.2,5.2-3.2,7.6-5.9c2.4-2.8,4.8-6.4,6.9-10.9
			c2.1-4.5,4.1-10.1,5.7-16.7c0.1-0.4,0-0.7-0.1-0.8C182.3,60.3,182,60.1,181.6,60.1L181.6,60.1z"/>
		<path class="st0" d="M158.3,59.2c-0.8,3.8-1.2,7.5-1.2,11.2c0,2.8,0.5,5,1.5,6.5c1.1,1.6,2.6,2.4,4.7,2.4c1.4,0,2.9-0.7,4.4-1.9
			c1.5-1.3,2.9-2.9,4.2-4.9l0-0.1l0-0.1c0.1-0.4,0-0.7-0.3-0.9c-0.3-0.2-0.6-0.2-0.9,0l-0.1,0.1l-0.1,0.1c-1.6,2.5-3.3,3.8-5,3.8
			c-1.2,0-2-0.5-2.5-1.6c-0.5-1.2-0.8-2.9-0.8-5.1c0-3,0.2-6,0.7-8.8c0.5-2.9,1.1-5.6,2-8.2c0.8-2.6,1.9-5,3.1-7.2s2.6-4.1,4.1-5.8
			c0.4-0.4,0.6-0.7,0.6-1s-0.1-0.6-0.4-0.8l-0.1,0c-0.7-0.2-1.8-0.2-2.9,0.1l-0.3,0.1c-1.4,0.4-2.8,1-3.7,1.6
			c-4.5,3.5-8.4,6.9-11.6,10.1c-3.2,3.1-6.1,6.1-8.8,8.8c-1.6,0-3,0.1-4.3,0.1c-1.3,0-2.3,0.1-2.9,0.1c-0.4,0-0.9,0.2-1.3,0.3
			c-0.4,0.2-0.8,0.4-1.1,0.6c-0.3,0.2-0.6,0.5-0.7,0.7c-0.2,0.3-0.2,0.5-0.1,0.7c0.1,0.2,0.2,0.3,0.6,0.4h0.1h0.1
			c1.3-0.2,2.6-0.3,4.1-0.5c1.1-0.1,2.3-0.2,3.5-0.2l-2.6,2.6c-1.1,1.1-2.2,2.1-3.3,3c-3.1,2.8-6.4,5.1-9.9,6.7
			c-2.1,1-4.2,2.9-4.3,4c0,0.3,0.1,0.6,0.3,0.7c0.4,0.3,1.2,0.2,2.4-0.4c4-2,8-4.7,11.8-8.2c1.4-1.2,2.8-2.6,4.3-4.1
			c1.4-1.4,2.9-3,4.4-4.6c2-0.1,4-0.2,6.1-0.2C154.3,59.2,156.3,59.2,158.3,59.2L158.3,59.2z M156.5,49.1c2.6-2.5,5.5-5.2,8.7-7.8
			c-1.3,2-2.4,4.2-3.3,6.4c-1.3,3.1-2.4,6.4-3.1,9.7h-4.9c-1.8,0-3.7,0-5.7,0C150.7,54.8,153.5,52,156.5,49.1L156.5,49.1z"/>
	</g>
</g>
<g id="Color">
	<path class="st1" d="M116.5,58.2c0,0-13-14.6-29.1-14.6c-0.4,0-0.9,0-1.3,0c3.6-7.8,3.1-16.4,3.1-16.4s-8.5-0.5-16.3,3.1
		c0-0.5,0-0.9,0-1.3C72.8,13,58.2,0,58.2,0S43.7,13,43.7,29.1c0,0.5,0,0.9,0,1.3c-7.8-3.6-16.4-3.1-16.4-3.1s-0.5,8.5,3.1,16.4
		c-0.5,0-0.9,0-1.3,0C13,43.7,0,58.2,0,58.2s13,14.6,29.1,14.6c0.5,0,0.9,0,1.3,0c-3.6,7.8-3.1,16.3-3.1,16.3s8.5,0.5,16.3-3.1
		c0,0.4,0,0.9,0,1.3c0,16.1,14.6,29.1,14.6,29.1s14.6-13,14.6-29.1c0-0.4,0-0.9,0-1.3c7.8,3.6,16.3,3.1,16.3,3.1s0.5-8.5-3.1-16.3
		c0.4,0,0.9,0,1.3,0C103.4,72.8,116.5,58.2,116.5,58.2L116.5,58.2z M70.5,64.4c-0.2,0-0.4,0-0.6,0c1.5,3.3,1.3,6.9,1.3,6.9
		s-3.6,0.2-6.9-1.3c0,0.2,0,0.4,0,0.6c0,6.8-6.1,12.3-6.1,12.3s-6.1-5.5-6.1-12.3c0-0.2,0-0.4,0-0.6c-3.3,1.5-6.9,1.3-6.9,1.3
		s-0.2-3.6,1.3-6.9c-0.2,0-0.4,0-0.6,0c-6.8,0-12.3-6.1-12.3-6.1s5.5-6.1,12.3-6.1c0.2,0,0.4,0,0.6,0c-1.5-3.3-1.3-6.9-1.3-6.9
		s3.6-0.2,6.9,1.3c0-0.2,0-0.4,0-0.6c0-6.8,6.1-12.3,6.1-12.3s6.1,5.5,6.1,12.3c0,0.2,0,0.4,0,0.6c3.3-1.5,6.9-1.3,6.9-1.3
		s0.2,3.6-1.3,6.9c0.2,0,0.4,0,0.6,0c6.8,0,12.3,6.1,12.3,6.1S77.3,64.4,70.5,64.4z"/>
</g>
</svg>
