<?xml version="1.0" encoding="UTF-8"?>
<svg id="Capa_2" data-name="Capa 2" xmlns="http://www.w3.org/2000/svg" viewBox="0 0 300.99 170.08">
  <defs>
    <style>
      .cls-1 {
        fill: #575756;
        stroke-width: 0px;
      }
    </style>
  </defs>
  <g id="Positivo">
    <g id="isotipo">
      <path class="cls-1" d="M147.57,28.01c-7.45,0-13.5,6.75-13.5,6.75,0,0,6.04,6.75,13.5,6.75.21,0,.41,0,.62-.01-1.65,3.63-1.44,7.58-1.44,7.58,0,0,3.95.22,7.58-1.44,0,.21-.01.41-.01.62,0,7.45,6.75,13.5,6.75,13.5,0,0,6.75-6.04,6.75-13.5,0-.21,0-.41-.01-.62,3.63,1.65,7.58,1.44,7.58,1.44,0,0,.22-3.95-1.44-7.58.21,0,.41.01.62.01,7.45,0,13.5-6.75,13.5-6.75,0,0-6.04-6.75-13.5-6.75-.21,0-.41,0-.62.01,1.65-3.63,1.44-7.58,1.44-7.58,0,0-3.95-.22-7.58,1.44,0-.21.01-.41.01-.62,0-7.45-6.75-13.5-6.75-13.5,0,0-6.75,6.04-6.75,13.5,0,.21,0,.41.01.62-3.63-1.65-7.58-1.44-7.58-1.44,0,0-.22,3.95,1.44,7.58-.21,0-.41-.01-.62-.01ZM155.37,31.91c.09,0,.17,0,.26,0-.7-1.53-.61-3.2-.61-3.2,0,0,1.67-.09,3.2.61,0-.09,0-.17,0-.26,0-3.14,2.85-5.69,2.85-5.69,0,0,2.85,2.55,2.85,5.69,0,.09,0,.17,0,.26,1.53-.7,3.2-.61,3.2-.61,0,0,.09,1.67-.61,3.2.09,0,.17,0,.26,0,3.14,0,5.69,2.85,5.69,2.85,0,0-2.55,2.85-5.69,2.85-.09,0-.17,0-.26,0,.7,1.53.61,3.2.61,3.2,0,0-1.67.09-3.2-.61,0,.09,0,.17,0,.26,0,3.14-2.85,5.69-2.85,5.69,0,0-2.85-2.55-2.85-5.69,0-.09,0-.17,0-.26-1.53.7-3.2.61-3.2.61,0,0-.09-1.67.61-3.2-.09,0-.17,0-.26,0-3.14,0-5.69-2.85-5.69-2.85,0,0,2.55-2.85,5.69-2.85Z"/>
      <path class="cls-1" d="M298.91,66.69c-1.73,0-3.73.36-5.94,1.07-1.81.58-3.38,1.28-4.68,2.07-2.84-2.08-6.59-3.14-11.16-3.14s-9.26,1.17-13.78,3.47c-4.47,2.27-8.58,5.23-12.22,8.8-3.65,3.58-6.62,7.67-8.82,12.14-2.23,4.52-3.36,9.16-3.36,13.77,0,4.12.94,7.8,2.8,10.93,1.98,3.36,4.86,5.06,8.56,5.06l.22-.02c4.94-.85,9.68-3.44,14.08-7.7,2.88-2.78,5.64-5.98,8.25-9.55-.51,3.57-.48,6.81.1,9.69,1.25,6.26,4.6,7.58,7.2,7.58,2.95,0,6.04-1.13,9.21-3.36,3.07-2.16,5.89-5.09,8.38-8.69l.13-.19.06-.23c.26-1.06-.07-2-.93-2.58-1.09-.72-2.06-.39-2.62.16l-.09.1c-3.44,4.26-5.18,5.15-5.92,5.3-.74.15-1.7.24-2.15-.23-.43-.69-.85-2.26-.56-5.78.26-3.12.99-6.73,2.17-10.74,1.18-4.01,2.89-8.28,5.06-12.71,2.17-4.4,4.79-8.49,7.81-12.16l.29-.35v-.46c0-1.58-1.04-2.28-2.08-2.28ZM276.34,89.1c-2.46,4.11-4.97,7.87-7.48,11.18-2.49,3.27-4.9,5.92-7.18,7.87-2.62,2.25-4.23,2.72-5.12,2.72-.32,0-1.28,0-2.43-1.99-.89-1.54-1.34-3.7-1.34-6.42,0-4.43.56-8.55,1.66-12.24,1.09-3.68,2.59-6.87,4.46-9.51,1.83-2.59,4.04-4.64,6.55-6.08,2.48-1.43,5.19-2.15,8.04-2.15,2.32,0,4.39.49,6.14,1.45,1.5.83,2.48,1.83,2.98,3.07-1.81,4.09-3.92,8.16-6.28,12.1Z"/>
      <path class="cls-1" d="M231.45,104.58l-.1.12c-1.82,2.34-3.45,4.1-4.84,5.24-1.26,1.03-2.45,1.53-3.63,1.53-.65,0-2.16,0-2.16-3.97s.96-8.91,2.85-14.19c1.91-5.33,4.29-10.6,7.03-15.58,1.07-1.68,1.61-3.61,1.61-5.73,0-1.44-.58-2.7-1.72-3.76-1.12-1.03-2.66-1.55-4.59-1.55-3.92,0-7.68.75-11.18,2.22-3.45,1.45-6.71,3.41-9.69,5.83-2.95,2.4-5.66,5.11-8.05,8.05-.36.45-.72.9-1.07,1.35.02-.07.04-.13.06-.2.74-2.65,1.46-5.49,2.14-8.46.46-2.3.25-4.31-.62-5.99-.98-1.86-2.88-2.8-5.67-2.8-1.78,0-3.59.41-5.37,1.23-1.69.78-3.34,1.78-4.88,2.97-1.53,1.18-2.9,2.42-4.08,3.66-1.18,1.24-2.13,2.38-2.83,3.36l-.17.33c-.28.83-.09,1.69.53,2.43.75.91,1.85,1.08,2.8.45l.19-.13.13-.18c1.02-1.4,2.19-2.74,3.48-3.96,1.11-1.05,2.21-1.56,3.36-1.56.18,0,.19.02.25.15.02.05.2.52-.27,2.1-1.73,6.92-3.79,13.9-6.12,20.77-2.34,6.89-4.68,13.29-6.93,18.99-.66,1.65.02,2.51.48,2.88.57.46,1.33.69,2.31.69.6,0,1.41-.07,2.4-.21.94-.13,1.92-.31,2.91-.52,1.03-.22,1.97-.52,2.78-.89,1.08-.49,1.74-1.1,1.99-1.85,5.03-14.56,10.58-25.3,16.49-31.94,5.77-6.47,11.02-9.76,15.59-9.76.39,0,.54,0,.54.74,0,.9-.17,1.75-.47,2.46-2.84,5.69-5.14,11.38-6.83,16.94-1.71,5.6-2.58,10.89-2.58,15.7,0,2.73.75,4.98,2.22,6.68,1.52,1.77,3.64,2.66,6.31,2.66,3.38,0,6.8-1.38,10.18-4.12,3.23-2.61,6.13-5.68,8.6-9.12l.14-.2.06-.24c.25-1-.05-1.95-.83-2.6-1.11-.92-2.16-.58-2.72-.02Z"/>
      <path class="cls-1" d="M166.01,66.69h-.28l-.25.12c-1.74.8-3.65,1.72-5.68,2.74-2.03,1.01-4.05,2.11-6.02,3.27-1.97,1.16-3.76,2.29-5.33,3.38-1.63,1.13-2.84,2.1-3.7,2.97l-.21.21-.1.28c-.18.55-.27,1.4.35,2.32.41.62.91.83,1.27.9.36.07.9.07,1.51-.34l.1-.08c1.6-1.33,3.3-2.55,5.09-3.65-4.16,16.45-8.34,30.1-12.44,40.63-4.31,11.07-8.77,19.83-13.26,26.03-4.42,6.11-9,10.32-13.63,12.5-4.65,2.19-9.62,3.31-14.78,3.31-6.13,0-10.71-1.16-13.63-3.46-2.79-2.2-3.85-4.93-3.26-8.36l.04-.26-.06-.26c-.27-1.11-1.04-1.78-2.04-1.78-.83,0-1.56.41-2.07,1.17l-.12.18-.05.21c-1.55,6.06-1.31,11.15.7,15.11,2.11,4.14,5.82,6.24,11.02,6.24,7.41,0,14.91-1.7,22.31-5.05,7.39-3.35,14.66-9.02,21.6-16.85,6.9-7.78,13.48-18.16,19.56-30.85,6.05-12.64,11.51-28.53,16.23-47.26.27-1.21-.08-1.97-.42-2.4-.51-.64-1.33-.97-2.44-.97Z"/>
      <path class="cls-1" d="M100.1,64c-2.21,10.68-3.33,21.3-3.33,31.6,0,7.89,1.46,14.09,4.35,18.45,2.99,4.53,7.45,6.82,13.26,6.82,3.92,0,8.16-1.86,12.61-5.53,4.32-3.56,8.31-8.28,11.87-14.03l.11-.17.05-.2c.26-1.06-.08-2-.94-2.58-.83-.55-1.79-.55-2.62,0l-.22.15-.14.22c-4.57,7.11-9.36,10.71-14.26,10.71-3.38,0-5.66-1.5-7-4.58-1.47-3.38-2.21-8.26-2.21-14.52,0-8.5.67-16.91,2-25,1.32-8.08,3.21-15.89,5.6-23.2,2.39-7.29,5.34-14.1,8.78-20.24,3.43-6.14,7.37-11.65,11.69-16.36,1.09-1.09,1.58-1.96,1.58-2.82s-.41-1.66-1.17-2.17l-.31-.15c-1.98-.66-4.97-.48-8.09.22l-.82.19c-3.95.99-8.01,2.75-10.43,4.63-12.64,9.95-23.7,19.58-32.88,28.63-9.01,8.87-17.34,17.27-24.77,24.96-4.49.13-8.51.22-12.07.29-3.71.07-6.48.17-8.3.31-1.18.15-2.41.48-3.66,1-1.24.51-2.32,1.11-3.2,1.77-.9.67-1.59,1.33-2.07,1.97-.6.8-.53,1.46-.37,1.87.16.42.56.95,1.55,1.15l.22.04.22-.03c3.6-.53,7.51-.97,11.61-1.3,3.17-.25,6.5-.49,9.93-.71l-7.31,7.31c-3.07,3.07-6.17,5.96-9.23,8.63-8.74,7.94-18.17,14.32-28.02,18.95C6.02,103.15.26,108.59,0,111.71c-.07.84.26,1.57.89,2.01,1.23.84,3.34.46,6.84-1.24,11.41-5.54,22.68-13.34,33.47-23.19,3.9-3.49,7.95-7.38,12.06-11.55,3.99-4.05,8.18-8.41,12.47-12.96,5.59-.25,11.4-.45,17.3-.58,5.62-.12,11.35-.19,17.06-.2ZM94.89,35.4c7.39-7.17,15.69-14.6,24.75-22.15-3.58,5.69-6.75,11.75-9.46,18.12-3.78,8.86-6.78,18.09-8.92,27.46h-13.8c-5.2,0-10.58.05-16.02.14,7.19-7.5,15.07-15.41,23.47-23.57Z"/>
    </g>
  </g>
</svg>